<svg width="142" height="28" viewBox="0 0 142 28" fill="none" xmlns="http://www.w3.org/2000/svg">
<path d="M1.6 21V7H3.28V19.48H10.36V21H1.6ZM16.9798 21.28C15.9932 21.28 15.1265 21.0733 14.3798 20.66C13.6332 20.2333 13.0532 19.64 12.6398 18.88C12.2265 18.12 12.0198 17.24 12.0198 16.24V16C12.0198 14.9867 12.2265 14.1 12.6398 13.34C13.0532 12.58 13.6265 11.9933 14.3598 11.58C15.0932 11.1533 15.9332 10.94 16.8798 10.94C17.7998 10.94 18.6132 11.14 19.3198 11.54C20.0265 11.9267 20.5798 12.4867 20.9798 13.22C21.3798 13.9533 21.5798 14.8133 21.5798 15.8V16.52H13.5998C13.6398 17.5733 13.9798 18.4 14.6198 19C15.2598 19.5867 16.0598 19.88 17.0198 19.88C17.8598 19.88 18.5065 19.6867 18.9598 19.3C19.4132 18.9133 19.7598 18.4533 19.9998 17.92L21.3598 18.58C21.1598 18.9933 20.8798 19.4067 20.5198 19.82C20.1732 20.2333 19.7132 20.58 19.1398 20.86C18.5798 21.14 17.8598 21.28 16.9798 21.28ZM13.6198 15.22H19.9798C19.9265 14.3133 19.6132 13.6067 19.0398 13.1C18.4798 12.5933 17.7598 12.34 16.8798 12.34C15.9865 12.34 15.2532 12.5933 14.6798 13.1C14.1065 13.6067 13.7532 14.3133 13.6198 15.22ZM27.3358 21.28C26.6558 21.28 26.0358 21.16 25.4758 20.92C24.9158 20.68 24.4758 20.3333 24.1558 19.88C23.8358 19.4267 23.6758 18.8733 23.6758 18.22C23.6758 17.5533 23.8358 17.0067 24.1558 16.58C24.4758 16.14 24.9158 15.8133 25.4758 15.6C26.0358 15.3733 26.6624 15.26 27.3558 15.26H30.6558V14.54C30.6558 13.8467 30.4491 13.3 30.0358 12.9C29.6358 12.5 29.0358 12.3 28.2358 12.3C27.4491 12.3 26.8358 12.4933 26.3958 12.88C25.9558 13.2533 25.6558 13.76 25.4958 14.4L24.0158 13.92C24.1758 13.3733 24.4291 12.88 24.7758 12.44C25.1224 11.9867 25.5824 11.6267 26.1558 11.36C26.7424 11.08 27.4424 10.94 28.2558 10.94C29.5091 10.94 30.4824 11.2667 31.1758 11.92C31.8691 12.56 32.2158 13.4667 32.2158 14.64V19.06C32.2158 19.46 32.4024 19.66 32.7758 19.66H33.6758V21H32.2958C31.8558 21 31.5024 20.88 31.2358 20.64C30.9691 20.3867 30.8358 20.0533 30.8358 19.64V19.54H30.5958C30.4491 19.7933 30.2491 20.06 29.9958 20.34C29.7558 20.6067 29.4224 20.8267 28.9958 21C28.5691 21.1867 28.0158 21.28 27.3358 21.28ZM27.5158 19.92C28.4491 19.92 29.2024 19.6467 29.7758 19.1C30.3624 18.54 30.6558 17.76 30.6558 16.76V16.54H27.4158C26.7891 16.54 26.2691 16.68 25.8558 16.96C25.4558 17.2267 25.2558 17.6333 25.2558 18.18C25.2558 18.7267 25.4624 19.1533 25.8758 19.46C26.3024 19.7667 26.8491 19.92 27.5158 19.92ZM35.8397 21V11.22H37.3797V12.42H37.6597C37.833 11.9933 38.0997 11.68 38.4597 11.48C38.8197 11.28 39.293 11.18 39.8797 11.18H41.0397V12.62H39.7797C39.073 12.62 38.4997 12.82 38.0597 13.22C37.633 13.6067 37.4197 14.2133 37.4197 15.04V21H35.8397ZM43.3788 21V11.22H44.9188V12.88H45.1988C45.4121 12.4133 45.7721 11.9933 46.2788 11.62C46.7988 11.2333 47.5588 11.04 48.5588 11.04C49.2921 11.04 49.9454 11.1933 50.5188 11.5C51.1054 11.8067 51.5721 12.26 51.9188 12.86C52.2654 13.46 52.4388 14.2 52.4388 15.08V21H50.8588V15.2C50.8588 14.2267 50.6121 13.52 50.1188 13.08C49.6388 12.64 48.9854 12.42 48.1588 12.42C47.2121 12.42 46.4388 12.7267 45.8388 13.34C45.2521 13.9533 44.9588 14.8667 44.9588 16.08V21H43.3788ZM60.7811 21V11.22H62.3211V12.44H62.6011C62.7878 12.0933 63.0944 11.7733 63.5211 11.48C63.9478 11.1867 64.5478 11.04 65.3211 11.04C66.0811 11.04 66.6944 11.2067 67.1611 11.54C67.6411 11.8733 67.9878 12.28 68.2011 12.76H68.4811C68.7078 12.28 69.0478 11.8733 69.5011 11.54C69.9678 11.2067 70.6144 11.04 71.4411 11.04C72.0944 11.04 72.6678 11.1733 73.1611 11.44C73.6544 11.7067 74.0411 12.0933 74.3211 12.6C74.6144 13.0933 74.7611 13.6867 74.7611 14.38V21H73.1811V14.52C73.1811 13.8667 72.9878 13.3533 72.6011 12.98C72.2278 12.5933 71.7011 12.4 71.0211 12.4C70.3011 12.4 69.7078 12.6333 69.2411 13.1C68.7878 13.5667 68.5611 14.24 68.5611 15.12V21H66.9811V14.52C66.9811 13.8667 66.7878 13.3533 66.4011 12.98C66.0278 12.5933 65.5011 12.4 64.8211 12.4C64.1011 12.4 63.5078 12.6333 63.0411 13.1C62.5878 13.5667 62.3611 14.24 62.3611 15.12V21H60.7811ZM82.5081 21.28C81.5215 21.28 80.6481 21.0733 79.8881 20.66C79.1415 20.2467 78.5548 19.6667 78.1281 18.92C77.7148 18.16 77.5081 17.2667 77.5081 16.24V15.98C77.5081 14.9667 77.7148 14.08 78.1281 13.32C78.5548 12.56 79.1415 11.9733 79.8881 11.56C80.6481 11.1467 81.5215 10.94 82.5081 10.94C83.4948 10.94 84.3615 11.1467 85.1081 11.56C85.8681 11.9733 86.4548 12.56 86.8681 13.32C87.2948 14.08 87.5081 14.9667 87.5081 15.98V16.24C87.5081 17.2667 87.2948 18.16 86.8681 18.92C86.4548 19.6667 85.8681 20.2467 85.1081 20.66C84.3615 21.0733 83.4948 21.28 82.5081 21.28ZM82.5081 19.86C83.5481 19.86 84.3748 19.5333 84.9881 18.88C85.6148 18.2133 85.9281 17.32 85.9281 16.2V16.02C85.9281 14.9 85.6148 14.0133 84.9881 13.36C84.3748 12.6933 83.5481 12.36 82.5081 12.36C81.4815 12.36 80.6548 12.6933 80.0281 13.36C79.4015 14.0133 79.0881 14.9 79.0881 16.02V16.2C79.0881 17.32 79.4015 18.2133 80.0281 18.88C80.6548 19.5333 81.4815 19.86 82.5081 19.86ZM90.3514 21V11.22H91.8914V12.42H92.1714C92.3447 11.9933 92.6114 11.68 92.9714 11.48C93.3314 11.28 93.8047 11.18 94.3914 11.18H95.5514V12.62H94.2914C93.5847 12.62 93.0114 12.82 92.5714 13.22C92.1447 13.6067 91.9314 14.2133 91.9314 15.04V21H90.3514ZM102.019 21.28C101.032 21.28 100.166 21.0733 99.4189 20.66C98.6722 20.2333 98.0922 19.64 97.6789 18.88C97.2656 18.12 97.0589 17.24 97.0589 16.24V16C97.0589 14.9867 97.2656 14.1 97.6789 13.34C98.0922 12.58 98.6656 11.9933 99.3989 11.58C100.132 11.1533 100.972 10.94 101.919 10.94C102.839 10.94 103.652 11.14 104.359 11.54C105.066 11.9267 105.619 12.4867 106.019 13.22C106.419 13.9533 106.619 14.8133 106.619 15.8V16.52H98.6389C98.6789 17.5733 99.0189 18.4 99.6589 19C100.299 19.5867 101.099 19.88 102.059 19.88C102.899 19.88 103.546 19.6867 103.999 19.3C104.452 18.9133 104.799 18.4533 105.039 17.92L106.399 18.58C106.199 18.9933 105.919 19.4067 105.559 19.82C105.212 20.2333 104.752 20.58 104.179 20.86C103.619 21.14 102.899 21.28 102.019 21.28ZM98.6589 15.22H105.019C104.966 14.3133 104.652 13.6067 104.079 13.1C103.519 12.5933 102.799 12.34 101.919 12.34C101.026 12.34 100.292 12.5933 99.7189 13.1C99.1456 13.6067 98.7922 14.3133 98.6589 15.22Z" fill="#B9FF66"/>
<path d="M122.25 17.701C121.533 18.1152 121.287 19.0326 121.701 19.75C122.115 20.4674 123.033 20.7133 123.75 20.299L122.25 17.701ZM141.769 9.38823C141.984 8.58803 141.509 7.76552 140.709 7.55111L127.669 4.05705C126.869 3.84264 126.046 4.31751 125.832 5.11771C125.617 5.91791 126.092 6.74042 126.892 6.95483L138.483 10.0607L135.378 21.6518C135.163 22.452 135.638 23.2745 136.438 23.4889C137.238 23.7033 138.061 23.2284 138.275 22.4282L141.769 9.38823ZM123.75 20.299L141.071 10.299L139.571 7.70096L122.25 17.701L123.75 20.299Z" fill="#B9FF66"/>
</svg>
